<?xml version="1.0" encoding="utf-8"?>
<!-- Generator: Adobe Illustrator 22.0.0, SVG Export Plug-In . SVG Version: 6.00 Build 0)  -->
<svg version="1.1" id="Capa_1" xmlns="http://www.w3.org/2000/svg" xmlns:xlink="http://www.w3.org/1999/xlink" x="0px" y="0px"
	 viewBox="0 0 490.4 490.4" style="enable-background:new 0 0 490.4 490.4;" xml:space="preserve">
<style type="text/css">
	.st0{fill:#64ac58;}
</style>
<g>
	<g>
		<path class="st0" d="M245.2,490.4C110,490.4,0,380.4,0,245.2S110,0,245.2,0s245.2,110,245.2,245.2S380.4,490.4,245.2,490.4z
			 M245.2,24.5c-121.7,0-220.7,99-220.7,220.7s99,220.7,220.7,220.7s220.7-99,220.7-220.7S366.9,24.5,245.2,24.5z"/>
		<path class="st0" d="M351.7,257.5H168.3l48,48c4.8,4.8,4.8,12.5,0,17.3c-2.4,2.4-5.5,3.6-8.7,3.6s-6.3-1.2-8.7-3.6L130,253.9
			c-4.8-4.8-4.8-12.5,0-17.3l68.9-68.9c4.8-4.8,12.5-4.8,17.3,0s4.8,12.5,0,17.3l-48,48h183.5c6.8,0,12.3,5.5,12.3,12.3
			C364,252.1,358.5,257.5,351.7,257.5z"/>
	</g>
</g>
</svg>
