<?xml version="1.0" encoding="utf-8"?>
<!-- Generator: Adobe Illustrator 16.0.2, SVG Export Plug-In . SVG Version: 6.00 Build 0)  -->
<!DOCTYPE svg PUBLIC "-//W3C//DTD SVG 1.1//EN" "http://www.w3.org/Graphics/SVG/1.1/DTD/svg11.dtd">
<svg version="1.1" id="Layer_1" xmlns="http://www.w3.org/2000/svg" xmlns:xlink="http://www.w3.org/1999/xlink" x="0px" y="0px"
	 width="319.115px" height="520.87px" viewBox="90.14 86.1 319.115 520.87" enable-background="new 90.14 86.1 319.115 520.87"
	 xml:space="preserve">
<title>water bottle</title>
<g>
	<path fill="#DD363E" d="M407.393,265.242l-51.323-89.664v-70.876c0-10.273-11.906-18.602-26.594-18.602H169.919
		c-14.686,0-26.593,8.329-26.593,18.602v70.876l-51.324,89.664c-1.238,2.191-1.869,4.527-1.862,6.883v316.242
		c0,10.274,11.907,18.603,26.593,18.603h265.93c14.687,0,26.593-8.328,26.593-18.603V272.125
		C409.264,269.769,408.631,267.433,407.393,265.242z M196.511,123.305h106.372v37.205H196.511V123.305z M356.07,569.766H143.326
		V275.66l44.677-77.945h123.655l44.411,77.945V569.766z"/>
</g>
</svg>
