<?xml version="1.0" encoding="utf-8"?>
<!-- Generator: Adobe Illustrator 22.0.0, SVG Export Plug-In . SVG Version: 6.00 Build 0)  -->
<svg version="1.1" id="Layer_1" xmlns="http://www.w3.org/2000/svg" xmlns:xlink="http://www.w3.org/1999/xlink" x="0px" y="0px"
	 viewBox="0 0 368 512" style="enable-background:new 0 0 368 512;" xml:space="preserve">
<style type="text/css">
	.st0{fill:#919191;}
</style>
<g>
	<g>
		<path class="st0" d="M352,0H16C6.4,0,0,8,0,16c0,6.4,3.2,11.2,9.6,14.4L40,467.2c1.6,25.6,24,44.8,49.6,44.8H280
			c25.6,0,46.4-19.2,49.6-44.8L360,28.8c4.8-1.6,8-6.4,8-12.8C368,6.4,361.6,0,352,0z M296,465.6c0,8-6.4,14.4-16,14.4H89.6
			c-8,0-16-6.4-17.6-14.4L65.6,384h236.8L296,465.6z M305.6,352c-0.8,0-1.2,0-1.2,0H64l-1.6-32h244.8L305.6,352z M310.4,288H59.2
			l-1.6-32H312L310.4,288z M313.6,224H54.4L41.6,32H328L313.6,224z"/>
	</g>
</g>
</svg>
