<?xml version="1.0" encoding="utf-8"?>
<!-- Generator: Adobe Illustrator 22.0.1, SVG Export Plug-In . SVG Version: 6.00 Build 0)  -->
<svg version="1.1" id="Isolation_Mode" xmlns="http://www.w3.org/2000/svg" xmlns:xlink="http://www.w3.org/1999/xlink" x="0px"
	 y="0px" viewBox="0 0 315.1 235.1" style="enable-background:new 0 0 315.1 235.1;" xml:space="preserve">
<style type="text/css">
  .st0{fill:#919191}
</style>
<g>
	<path class="st0" d="M276.1,17.4C227.8-0.5,87.2-0.5,38.9,17.4l-27.8-5.3c-1.8-0.3-3.6,0.1-4.9,1.3C4.8,14.5,4,16.2,4,18v198.9
		c0,1.8,0.8,3.5,2.2,4.6c1.4,1.1,3.2,1.6,4.9,1.3l27.9-5.2c48.3,17.9,188.9,17.9,237.2,0l27.8,5.2c1.8,0.3,3.6-0.1,4.9-1.3
		c1.4-1.1,2.2-2.8,2.2-4.6V18l0,0c0-3.3-2.7-6-6-6c-0.6,0-1.1,0.1-1.6,0.2L276.1,17.4z M16,25.2l17.5,3.3v177.9L16,209.7V25.2z
		 M45.5,207.2V27.8C92.4,12,222.7,12,269.6,27.8v179.4C222.7,223,92.4,223,45.5,207.2z M299.1,209.7l-17.5-3.3V28.6l17.5-3.3V209.7z
		"/>
</g>
</svg>
