<?xml version="1.0" encoding="utf-8"?>
<!-- Generator: Adobe Illustrator 22.0.0, SVG Export Plug-In . SVG Version: 6.00 Build 0)  -->
<svg version="1.1" id="Layer_1" xmlns="http://www.w3.org/2000/svg" xmlns:xlink="http://www.w3.org/1999/xlink" x="0px" y="0px"
	 viewBox="0 0 499.9 499.9" style="enable-background:new 0 0 499.9 499.9;" xml:space="preserve">
<style type="text/css">
	.st0{fill:#ffdc44;}
</style>
<g>
	<g>
		<path class="st0" d="M250,499.9c-75,0-150,0-225,0c-0.9-0.4-1.8-0.9-2.7-1.1c-9.7-2-16.2-7.9-20-16.9c-1-2.3-1.5-4.7-2.3-7
			C0,325,0,175,0,25c0.4-1.1,0.9-2.1,1.2-3.2c2.4-10,8.6-16.5,18.2-20C21.2,1.1,23.1,0.6,25,0c150,0,300,0,449.9,0
			c0.9,0.4,1.8,0.9,2.7,1.1c9.7,2,16.2,7.9,20,16.9c1,2.3,1.5,4.7,2.3,7c0,150,0,300,0,449.9c-0.4,1.1-0.9,2.1-1.2,3.2
			c-2.4,10-8.6,16.5-18.2,20c-1.8,0.7-3.7,1.2-5.6,1.8c-47,0-94,0-141,0c0-64.4,0-128.8,0-193.8c2.4,0,4.2,0,6,0
			c14.3,0,28.7-0.2,43,0.1c4.6,0.1,6.7-1.2,8.2-5.7c7.8-24.1,15.9-48.2,23.9-72.3c0.7-2,1.1-4,1.7-6.7c-27.9,0-55.1,0-82.6,0
			c0-10-0.9-19.6,0.2-28.9c1.6-13.2,5.6-26,16.5-34.7c14-11.1,29.6-19,48.2-18.8c5.9,0.1,11.8,0,17.5,0c0-19.3,0-37.6,0-55.5
			c-5.9,0-11.2,0-16.5,0c-17.8,0-35.7-1.1-53.4,0.2c-36.7,2.6-64.1,20.6-80.7,53.6c-11,21.9-17.2,45.3-16.4,70.1
			c0.1,4.6,0,9.2,0,14.1c-17.4,0-34,0.1-50.7-0.1c-4.2-0.1-5.3,1.4-5.3,5.4c0.2,24.7,0.1,49.3,0,74c0,3.9,1.1,5.2,5.1,5.2
			c15.2-0.2,30.3-0.1,45.5-0.1c1.7,0,3.5,0.2,5.4,0.3c0,2.6,0,4.6,0,6.6c0,60.1,0,120.3,0,180.4C249.7,495.6,249.9,497.8,250,499.9z
			"/>
	</g>
</g>
</svg>
