<?xml version="1.0" encoding="utf-8"?>
<!-- Generator: Adobe Illustrator 22.0.0, SVG Export Plug-In . SVG Version: 6.00 Build 0)  -->
<svg version="1.1" id="Layer_1" xmlns="http://www.w3.org/2000/svg" xmlns:xlink="http://www.w3.org/1999/xlink" x="0px" y="0px"
	 viewBox="0 0 492.7 344.9" style="enable-background:new 0 0 492.7 344.9;" xml:space="preserve">
<style type="text/css">
	.st0{fill:#ffdc44;}
</style>
<g>
	<g>
		<path class="st0" d="M247.6,343.2c-31.5,0-63,0.4-94.5-0.1c-23.1-0.4-46.3-1.6-69.3-3c-9.7-0.6-19.5-2.1-29-4.4
			c-21.8-5.1-36.1-18.7-43.3-40c-4.5-13.5-6.6-27.3-8.1-41.4c-4.4-42.2-3.8-84.5-2.5-126.8c0.8-26.3,1.9-52.7,10.3-78.2
			c9.5-29,32.8-42.1,56.7-43.5c28.7-1.7,57.5-3.3,86.2-4.1c38.6-1,77.3-1.6,115.9-1.6c30.3,0,60.6,0.8,90.9,1.9
			c22.3,0.8,44.6,1.7,66.7,4.1c26.2,2.8,44.4,16.9,53.4,42.3c5.4,15.4,8,31.3,8.7,47.3c1.5,32.2,3.1,64.5,2.9,96.8
			c-0.2,25.9-2.2,51.9-5.1,77.6c-1.3,12-5.5,24-10.5,35.1c-9.2,20.4-26.7,30.9-48.4,32.9c-24.8,2.3-49.8,3.4-74.7,4.3
			c-35.5,1.2-70.9,1.8-106.4,2.7C247.6,344.3,247.6,343.7,247.6,343.2z M196.7,247.1c42-25.1,82.9-49.6,124.8-74.6
			c-42.1-25.3-83-50-124.8-75.2C196.7,147.9,196.7,196.9,196.7,247.1z"/>
	</g>
</g>
</svg>
