<?xml version="1.0" encoding="utf-8"?>
<!-- Generator: Adobe Illustrator 22.0.0, SVG Export Plug-In . SVG Version: 6.00 Build 0)  -->
<svg version="1.1" id="Layer_1" xmlns="http://www.w3.org/2000/svg" xmlns:xlink="http://www.w3.org/1999/xlink" x="0px" y="0px"
	 viewBox="0 0 512 288" style="enable-background:new 0 0 512 288;" xml:space="preserve">
<style type="text/css">
	.st0{fill:#919191;}
</style>
<g>
	<g>
		<path class="st0" d="M496,0H16C8,0,0,6.4,0,16c0,96,46.4,176,128,220.8V272c0,9.6,6.4,16,16,16h224c9.6,0,16-6.4,16-16v-36.8
			C465.6,190.4,512,112,512,16C512,6.4,504,0,496,0z M360,211.2c-4.8,3.2-8,8-8,14.4V256H160v-28.8c0-6.4-3.2-11.2-9.6-14.4
			C80,177.6,38.4,113.6,33.6,32H480C473.6,112,432,176,360,211.2z"/>
	</g>
</g>
</svg>
