<?xml version="1.0" encoding="utf-8"?>
<!-- Generator: Adobe Illustrator 22.0.0, SVG Export Plug-In . SVG Version: 6.00 Build 0)  -->
<svg version="1.1" id="Capa_1" xmlns="http://www.w3.org/2000/svg" xmlns:xlink="http://www.w3.org/1999/xlink" x="0px" y="0px"
	 viewBox="0 0 419 123.8" style="enable-background:new 0 0 419 123.8;" xml:space="preserve">
<style type="text/css">
	.st0{fill:#919191;}
</style>
<path class="st0" d="M416.4,18.4c2.8-3.4,3.3-8,1.5-12S412.1,0,407.7,0H11.3C6.9,0,3,2.5,1.1,6.5s-1.3,8.6,1.5,12l50.6,61.7
	l10.6,35.6c1.4,4.8,5.8,8.1,10.8,8.1h269.9c5,0,9.4-3.3,10.8-8.1l10.6-35.6L416.4,18.4z M383.9,22.6l-33.6,40.9H68.7L35.1,22.6
	H383.9z M336,101.3H83l-4.5-15.2h262.1L336,101.3z"/>
</svg>
